name rise32.9588peak41.5061fall63.4684.mot
datacolumns 19
datarows 36
range 17.30493400000000 17.36660500000000
endheader
time	ground_force1_vx	ground_force1_vy	ground_force1_vz	ground_force1_px	ground_force1_py	ground_force1_pz	ground_force2_vx	ground_force2_vy	ground_force2_vz	ground_force2_px	ground_force2_py	ground_force2_pz	ground_torque1_x	ground_torque1_y	ground_torque1_z	ground_torque2_x	ground_torque2_y	ground_torque2_z	
17.30493400000000	40.56609500000000	687.34101299999998	51.02999000000000	0.27358500000000	0.00000000000000	0.13257500000000	-0.80746200000000	10.58473400000000	1.18117800000000	0.00000000000000	0.00000000000000	0.00000000000000	0.00000000000000	15.72250500000000	0.00000000000000	0.00000000000000	-0.20224600000000	0.00000000000000	
17.30660200000000	39.98373500000000	690.40665500000000	51.12857800000000	0.27285400000000	0.00000000000000	0.13257900000000	-0.32966800000000	6.46162300000000	0.80386500000000	0.00000000000000	0.00000000000000	0.00000000000000	0.00000000000000	15.80671800000000	0.00000000000000	0.00000000000000	-0.12083500000000	0.00000000000000	
17.30828300000000	39.41812900000000	693.46668999999997	51.24074200000000	0.27215300000000	0.00000000000000	0.13258300000000	0.02436100000000	3.10437400000000	0.47739200000000	0.00000000000000	0.00000000000000	0.00000000000000	0.00000000000000	15.89692000000000	0.00000000000000	0.00000000000000	-0.05494200000000	0.00000000000000	
17.30993100000000	38.86942800000000	696.51846200000000	51.36629700000000	0.27148100000000	0.00000000000000	0.13258900000000	0.00000000000000	0.00000000000000	0.00000000000000	0.00000000000000	0.00000000000000	0.00000000000000	0.00000000000000	15.99287500000000	0.00000000000000	0.00000000000000	0.00000000000000	0.00000000000000	
17.31160500000000	38.33767600000000	699.55910500000005	51.50494200000000	0.27083500000000	0.00000000000000	0.13259500000000	0.00000000000000	0.00000000000000	0.00000000000000	0.00000000000000	0.00000000000000	0.00000000000000	0.00000000000000	16.09429900000000	0.00000000000000	0.00000000000000	0.00000000000000	0.00000000000000	
17.31328300000000	37.82281900000000	702.58556499999997	51.65626300000000	0.27021200000000	0.00000000000000	0.13260200000000	0.00000000000000	0.00000000000000	0.00000000000000	0.00000000000000	0.00000000000000	0.00000000000000	0.00000000000000	16.20086300000000	0.00000000000000	0.00000000000000	0.00000000000000	0.00000000000000	
17.31493400000000	37.32470800000000	705.59460999999999	51.81974200000000	0.26961000000000	0.00000000000000	0.13261000000000	0.00000000000000	0.00000000000000	0.00000000000000	0.00000000000000	0.00000000000000	0.00000000000000	0.00000000000000	16.31219400000000	0.00000000000000	0.00000000000000	0.00000000000000	0.00000000000000	
17.31659800000000	36.84310700000000	708.58285699999999	51.99476100000000	0.26902700000000	0.00000000000000	0.13261900000000	0.00000000000000	0.00000000000000	0.00000000000000	0.00000000000000	0.00000000000000	0.00000000000000	0.00000000000000	16.42788100000000	0.00000000000000	0.00000000000000	0.00000000000000	0.00000000000000	
17.31828300000000	36.37769300000000	711.54678100000001	52.18061000000000	0.26845900000000	0.00000000000000	0.13262900000000	0.00000000000000	0.00000000000000	0.00000000000000	0.00000000000000	0.00000000000000	0.00000000000000	0.00000000000000	16.54747800000000	0.00000000000000	0.00000000000000	0.00000000000000	0.00000000000000	
17.31993900000000	35.92806800000000	714.48274300000003	52.37649200000000	0.26790400000000	0.00000000000000	0.13264000000000	0.00000000000000	0.00000000000000	0.00000000000000	0.00000000000000	0.00000000000000	0.00000000000000	0.00000000000000	16.67050400000000	0.00000000000000	0.00000000000000	0.00000000000000	0.00000000000000	
17.32159800000000	35.49375900000000	717.38700100000005	52.58153200000000	0.26736000000000	0.00000000000000	0.13265200000000	0.00000000000000	0.00000000000000	0.00000000000000	0.00000000000000	0.00000000000000	0.00000000000000	0.00000000000000	16.79645100000000	0.00000000000000	0.00000000000000	0.00000000000000	0.00000000000000	
17.32327900000000	35.07422900000000	720.25573499999996	52.79478600000000	0.26682300000000	0.00000000000000	0.13266600000000	0.00000000000000	0.00000000000000	0.00000000000000	0.00000000000000	0.00000000000000	0.00000000000000	0.00000000000000	16.92478600000000	0.00000000000000	0.00000000000000	0.00000000000000	0.00000000000000	
17.32493900000000	34.66888200000000	723.08506399999999	53.01524700000000	0.26629100000000	0.00000000000000	0.13268100000000	0.00000000000000	0.00000000000000	0.00000000000000	0.00000000000000	0.00000000000000	0.00000000000000	0.00000000000000	17.05495200000000	0.00000000000000	0.00000000000000	0.00000000000000	0.00000000000000	
17.32660300000000	34.27706800000000	725.87106500000004	53.24185300000000	0.26576100000000	0.00000000000000	0.13269700000000	0.00000000000000	0.00000000000000	0.00000000000000	0.00000000000000	0.00000000000000	0.00000000000000	0.00000000000000	17.18637700000000	0.00000000000000	0.00000000000000	0.00000000000000	0.00000000000000	
17.32827800000000	33.89809100000000	728.60978999999998	53.47349900000000	0.26523000000000	0.00000000000000	0.13271500000000	0.00000000000000	0.00000000000000	0.00000000000000	0.00000000000000	0.00000000000000	0.00000000000000	0.00000000000000	17.31847500000000	0.00000000000000	0.00000000000000	0.00000000000000	0.00000000000000	
17.32993600000000	33.53121500000000	731.29728999999998	53.70904100000000	0.26469700000000	0.00000000000000	0.13273400000000	0.00000000000000	0.00000000000000	0.00000000000000	0.00000000000000	0.00000000000000	0.00000000000000	0.00000000000000	17.45064900000000	0.00000000000000	0.00000000000000	0.00000000000000	0.00000000000000	
17.33160000000000	33.17567200000000	733.92962799999998	53.94730700000000	0.26415900000000	0.00000000000000	0.13275400000000	0.00000000000000	0.00000000000000	0.00000000000000	0.00000000000000	0.00000000000000	0.00000000000000	0.00000000000000	17.58229800000000	0.00000000000000	0.00000000000000	0.00000000000000	0.00000000000000	
17.33328100000000	32.83066700000000	736.50290199999995	54.18710500000000	0.26361300000000	0.00000000000000	0.13277600000000	0.00000000000000	0.00000000000000	0.00000000000000	0.00000000000000	0.00000000000000	0.00000000000000	0.00000000000000	17.71281900000000	0.00000000000000	0.00000000000000	0.00000000000000	0.00000000000000	
17.33493300000000	32.49538700000000	739.01325999999995	54.42723100000000	0.26305700000000	0.00000000000000	0.13279900000000	0.00000000000000	0.00000000000000	0.00000000000000	0.00000000000000	0.00000000000000	0.00000000000000	0.00000000000000	17.84161100000000	0.00000000000000	0.00000000000000	0.00000000000000	0.00000000000000	
17.33661900000000	32.16900500000000	741.45691599999998	54.66647900000000	0.26248900000000	0.00000000000000	0.13282300000000	0.00000000000000	0.00000000000000	0.00000000000000	0.00000000000000	0.00000000000000	0.00000000000000	0.00000000000000	17.96807800000000	0.00000000000000	0.00000000000000	0.00000000000000	0.00000000000000	
17.33826600000000	31.85068600000000	743.83016999999995	54.90364500000000	0.26190800000000	0.00000000000000	0.13284900000000	0.00000000000000	0.00000000000000	0.00000000000000	0.00000000000000	0.00000000000000	0.00000000000000	0.00000000000000	18.09163600000000	0.00000000000000	0.00000000000000	0.00000000000000	0.00000000000000	
17.33993500000000	31.53959700000000	746.12942299999997	55.13753800000000	0.26131100000000	0.00000000000000	0.13287600000000	0.00000000000000	0.00000000000000	0.00000000000000	0.00000000000000	0.00000000000000	0.00000000000000	0.00000000000000	18.21171400000000	0.00000000000000	0.00000000000000	0.00000000000000	0.00000000000000	
17.34159900000000	31.23491000000000	748.35119199999997	55.36698800000000	0.26069600000000	0.00000000000000	0.13290400000000	0.00000000000000	0.00000000000000	0.00000000000000	0.00000000000000	0.00000000000000	0.00000000000000	0.00000000000000	18.32775600000000	0.00000000000000	0.00000000000000	0.00000000000000	0.00000000000000	
17.34327800000000	30.93580700000000	750.49212399999999	55.59085000000000	0.26006400000000	0.00000000000000	0.13293300000000	0.00000000000000	0.00000000000000	0.00000000000000	0.00000000000000	0.00000000000000	0.00000000000000	0.00000000000000	18.43922900000000	0.00000000000000	0.00000000000000	0.00000000000000	0.00000000000000	
17.34493500000000	30.64148800000000	752.54901199999995	55.80801300000000	0.25941100000000	0.00000000000000	0.13296300000000	0.00000000000000	0.00000000000000	0.00000000000000	0.00000000000000	0.00000000000000	0.00000000000000	0.00000000000000	18.54562300000000	0.00000000000000	0.00000000000000	0.00000000000000	0.00000000000000	
17.34660100000000	30.35117500000000	754.51880900000003	56.01740400000000	0.25873700000000	0.00000000000000	0.13299500000000	0.00000000000000	0.00000000000000	0.00000000000000	0.00000000000000	0.00000000000000	0.00000000000000	0.00000000000000	18.64645200000000	0.00000000000000	0.00000000000000	0.00000000000000	0.00000000000000	
17.34827700000000	30.06411700000000	756.39863700000001	56.21799800000000	0.25804100000000	0.00000000000000	0.13302700000000	0.00000000000000	0.00000000000000	0.00000000000000	0.00000000000000	0.00000000000000	0.00000000000000	0.00000000000000	18.74126200000000	0.00000000000000	0.00000000000000	0.00000000000000	0.00000000000000	
17.34993100000000	29.77959200000000	758.18579999999997	56.40881800000000	0.25732200000000	0.00000000000000	0.13306100000000	0.00000000000000	0.00000000000000	0.00000000000000	0.00000000000000	0.00000000000000	0.00000000000000	0.00000000000000	18.82962900000000	0.00000000000000	0.00000000000000	0.00000000000000	0.00000000000000	
17.35160200000000	29.49691600000000	759.87779899999998	56.58894500000000	0.25657900000000	0.00000000000000	0.13309500000000	0.00000000000000	0.00000000000000	0.00000000000000	0.00000000000000	0.00000000000000	0.00000000000000	0.00000000000000	18.91116100000000	0.00000000000000	0.00000000000000	0.00000000000000	0.00000000000000	
17.35659900000000	29.21544500000000	761.47233300000005	56.75751800000000	0.25581300000000	0.00000000000000	0.13313100000000	0.00000000000000	0.00000000000000	0.00000000000000	0.00000000000000	0.00000000000000	0.00000000000000	0.00000000000000	18.98550400000000	0.00000000000000	0.00000000000000	0.00000000000000	0.00000000000000	
17.35828300000000	28.93457400000000	762.96731899999997	56.91374100000000	0.25502300000000	0.00000000000000	0.13316700000000	0.00000000000000	0.00000000000000	0.00000000000000	0.00000000000000	0.00000000000000	0.00000000000000	0.00000000000000	19.05233800000000	0.00000000000000	0.00000000000000	0.00000000000000	0.00000000000000	
17.35993400000000	28.65374600000000	764.36088900000004	57.05688300000000	0.25420800000000	0.00000000000000	0.13320300000000	0.00000000000000	0.00000000000000	0.00000000000000	0.00000000000000	0.00000000000000	0.00000000000000	0.00000000000000	19.11138500000000	0.00000000000000	0.00000000000000	0.00000000000000	0.00000000000000	
17.36160400000000	28.37245200000000	765.65140599999995	57.18628500000000	0.25336800000000	0.00000000000000	0.13324100000000	0.00000000000000	0.00000000000000	0.00000000000000	0.00000000000000	0.00000000000000	0.00000000000000	0.00000000000000	19.16240100000000	0.00000000000000	0.00000000000000	0.00000000000000	0.00000000000000	
17.36328300000000	28.09023200000000	766.83746399999995	57.30135800000000	0.25250500000000	0.00000000000000	0.13327900000000	0.00000000000000	0.00000000000000	0.00000000000000	0.00000000000000	0.00000000000000	0.00000000000000	0.00000000000000	19.20518400000000	0.00000000000000	0.00000000000000	0.00000000000000	0.00000000000000	
17.36493100000000	27.80667900000000	767.91789700000004	57.40158700000000	0.25161800000000	0.00000000000000	0.13331700000000	0.00000000000000	0.00000000000000	0.00000000000000	0.00000000000000	0.00000000000000	0.00000000000000	0.00000000000000	19.23957200000000	0.00000000000000	0.00000000000000	0.00000000000000	0.00000000000000	
17.36660500000000	27.52143900000000	768.89178000000004	57.48653100000000	0.25070800000000	0.00000000000000	0.13335600000000	0.00000000000000	0.00000000000000	0.00000000000000	0.00000000000000	0.00000000000000	0.00000000000000	0.00000000000000	19.26544100000000	0.00000000000000	0.00000000000000	0.00000000000000	0.00000000000000	
